<?xml version="1.0" encoding="UTF-8" standalone="no"?>
<!-- Generator: Adobe Illustrator 16.0.0, SVG Export Plug-In . SVG Version: 6.00 Build 0)  -->

<svg
   version="1.1"
   id="Layer_1"
   x="0px"
   y="0px"
   width="144.56133"
   height="149.69531"
   viewBox="0 0 144.56133 149.69531"
   enable-background="new 0 0 1000 252.156"
   xml:space="preserve"
   sodipodi:docname="GameSpot_GameFaqs2.svg"
   inkscape:version="1.4.3 (0d15f75, 2025-12-25)"
   inkscape:export-filename="GameSpot_GameFaqsz.svg"
   inkscape:export-xdpi="96"
   inkscape:export-ydpi="96"
   xmlns:inkscape="http://www.inkscape.org/namespaces/inkscape"
   xmlns:sodipodi="http://sodipodi.sourceforge.net/DTD/sodipodi-0.dtd"
   xmlns="http://www.w3.org/2000/svg"
   xmlns:svg="http://www.w3.org/2000/svg"
   xmlns:rdf="http://www.w3.org/1999/02/22-rdf-syntax-ns#"
   xmlns:cc="http://creativecommons.org/ns#"
   xmlns:dc="http://purl.org/dc/elements/1.1/"><metadata
   id="metadata527"><rdf:RDF><cc:Work
       rdf:about=""><dc:format>image/svg+xml</dc:format><dc:type
         rdf:resource="http://purl.org/dc/dcmitype/StillImage" /></cc:Work></rdf:RDF></metadata><defs
   id="defs525">
	
</defs><sodipodi:namedview
   pagecolor="#ffffff"
   bordercolor="#666666"
   borderopacity="1"
   objecttolerance="10"
   gridtolerance="10"
   guidetolerance="10"
   inkscape:pageopacity="0"
   inkscape:pageshadow="2"
   inkscape:window-width="1664"
   inkscape:window-height="911"
   id="namedview523"
   showgrid="false"
   inkscape:zoom="1"
   inkscape:cx="400.5"
   inkscape:cy="-14"
   inkscape:window-x="8"
   inkscape:window-y="38"
   inkscape:window-maximized="0"
   inkscape:current-layer="Layer_1"
   inkscape:showpageshadow="2"
   inkscape:pagecheckerboard="0"
   inkscape:deskcolor="#d1d1d1" />
<path
   id="path114"
   style="display:inline;fill:#6564ff"
   d="M 47.264455,0 C 36.779455,0 26.386002,8.458359 24.200002,18.818359 L 21.621877,30.96289 H 144.56133 L 129.65703,0 Z M 18.526174,45.613281 0.41484454,130.92578 c -2.20100004,10.313 4.57637596,18.76953 15.10937646,18.76953 h 85.898439 c 10.48599,0 20.91007,-8.45653 23.08007,-18.76953 l 15.81446,-72.648436 -78.511719,0.05664 13.724609,30.519534 h 26.77343 l -4.667957,22.121092 c -0.456,2.06 -2.53105,3.75586 -4.62305,3.75586 H 41.776174 c -2.09,0 -3.489579,-1.69586 -3.017579,-3.75586 L 52.59258,45.613281 Z" />
<path
   style="fill:#000000"
   d="m 33.000783,-237.29492 107.999997,-5 59,15 5,36 -36,155.999998 -91.999997,1 c 0,0 -39,7 -40,-2 -1,-9 -4,-200.999998 -4,-200.999998 z"
   id="path1" /></svg>
